<svg width="21" height="20" viewBox="0 0 21 20" fill="none" xmlns="http://www.w3.org/2000/svg">
<path d="M8.25 4H12.25C12.25 3.46957 12.0393 2.96086 11.6642 2.58579C11.2891 2.21071 10.7804 2 10.25 2C9.71957 2 9.21086 2.21071 8.83579 2.58579C8.46071 2.96086 8.25 3.46957 8.25 4ZM6.25 4C6.25 2.93913 6.67143 1.92172 7.42157 1.17157C8.17172 0.421427 9.18913 0 10.25 0C11.3109 0 12.3283 0.421427 13.0784 1.17157C13.8286 1.92172 14.25 2.93913 14.25 4H19.25C19.5152 4 19.7696 4.10536 19.9571 4.29289C20.1446 4.48043 20.25 4.73478 20.25 5C20.25 5.26522 20.1446 5.51957 19.9571 5.70711C19.7696 5.89464 19.5152 6 19.25 6H18.368L17.482 16.34C17.3968 17.3385 16.94 18.2686 16.2019 18.9463C15.4637 19.6241 14.4981 20.0001 13.496 20H7.004C6.00191 20.0001 5.03628 19.6241 4.29815 18.9463C3.56002 18.2686 3.10318 17.3385 3.018 16.34L2.132 6H1.25C0.984784 6 0.73043 5.89464 0.542893 5.70711C0.355357 5.51957 0.25 5.26522 0.25 5C0.25 4.73478 0.355357 4.48043 0.542893 4.29289C0.73043 4.10536 0.984784 4 1.25 4H6.25ZM13.25 10C13.25 9.73478 13.1446 9.48043 12.9571 9.29289C12.7696 9.10536 12.5152 9 12.25 9C11.9848 9 11.7304 9.10536 11.5429 9.29289C11.3554 9.48043 11.25 9.73478 11.25 10V14C11.25 14.2652 11.3554 14.5196 11.5429 14.7071C11.7304 14.8946 11.9848 15 12.25 15C12.5152 15 12.7696 14.8946 12.9571 14.7071C13.1446 14.5196 13.25 14.2652 13.25 14V10ZM8.25 9C7.98478 9 7.73043 9.10536 7.54289 9.29289C7.35536 9.48043 7.25 9.73478 7.25 10V14C7.25 14.2652 7.35536 14.5196 7.54289 14.7071C7.73043 14.8946 7.98478 15 8.25 15C8.51522 15 8.76957 14.8946 8.95711 14.7071C9.14464 14.5196 9.25 14.2652 9.25 14V10C9.25 9.73478 9.14464 9.48043 8.95711 9.29289C8.76957 9.10536 8.51522 9 8.25 9Z" fill="black"/>
</svg>
